<?xml version="1.0" standalone="no"?>
<!DOCTYPE svg PUBLIC "-//W3C//DTD SVG 20010904//EN"
 "http://www.w3.org/TR/2001/REC-SVG-20010904/DTD/svg10.dtd">
<svg version="1.0" xmlns="http://www.w3.org/2000/svg"
 width="480.000000pt" height="480.000000pt" viewBox="0 0 480.000000 480.000000"
 preserveAspectRatio="xMidYMid meet">
<metadata>
Created by potrace 1.11, written by Peter Selinger 2001-2013
</metadata>
<g transform="translate(0.000000,480.000000) scale(0.100000,-0.100000)"
fill="#000000" stroke="none">
<path d="M3554 4306 c-67 -21 -119 -64 -324 -270 l-195 -196 403 -403 402
-402 214 215 c238 241 256 267 264 384 3 56 -1 83 -18 131 -21 55 -41 79 -249
286 -205 205 -231 229 -284 248 -65 24 -150 27 -213 7z"/>
<path d="M1776 2581 l-938 -938 77 -5 c135 -9 147 -31 163 -288 6 -91 16 -180
22 -199 19 -50 57 -61 254 -72 221 -12 240 -17 261 -72 8 -23 19 -70 23 -105
l7 -62 940 940 940 940 -400 400 c-220 220 -402 400 -405 400 -3 0 -427 -422
-944 -939z"/>
<path d="M630 1094 c-65 -168 -150 -432 -150 -463 0 -73 78 -151 151 -151 34
0 463 141 481 159 4 3 -100 114 -232 246 l-239 239 -11 -30z"/>
</g>
</svg>
